<?xml version="1.0" encoding="UTF-8"?>
<svg xmlns="http://www.w3.org/2000/svg"
     viewBox="0 0 326 322"
     width="326" height="322"
     fill="none">
  <title>FAQ headset icon — vector</title>
  <desc>Vectorized green headset support icon with question mark, transparent background.</desc>
  <g fill="#55FF00" fill-rule="evenodd">
    <path d="M 207.00 252.00 L 204.00 255.00 L 204.00 261.00 L 208.00 264.00 L 214.00 263.00 L 216.00 260.00 L 215.00 254.00 L 213.00 252.00 Z"/><path d="M 207.00 200.00 L 200.00 202.00 L 195.00 206.00 L 192.00 211.00 L 191.00 218.00 L 193.00 220.00 L 200.00 220.00 L 202.00 213.00 L 205.00 210.00 L 212.00 209.00 L 217.00 212.00 L 219.00 217.00 L 218.00 222.00 L 210.00 228.00 L 205.00 234.00 L 205.00 244.00 L 206.00 245.00 L 213.00 245.00 L 215.00 237.00 L 228.00 224.00 L 229.00 215.00 L 225.00 206.00 L 220.00 202.00 L 213.00 200.00 Z"/><path d="M 166.00 169.00 L 163.00 169.00 L 154.00 177.00 L 143.00 184.00 L 141.00 184.00 L 141.00 185.00 L 144.00 185.00 L 155.00 181.00 L 166.00 171.00 Z"/><path d="M 181.00 138.00 L 176.00 140.00 L 176.00 143.00 L 172.00 154.00 L 176.00 153.00 L 180.00 144.00 Z"/><path d="M 97.00 99.00 L 97.00 117.00 L 102.00 117.00 L 107.00 112.00 L 121.00 109.00 L 133.00 104.00 L 147.00 95.00 L 155.00 88.00 L 158.00 88.00 L 161.00 91.00 L 164.00 100.00 L 172.00 113.00 L 181.00 117.00 L 181.00 100.00 L 176.00 86.00 L 171.00 79.00 L 164.00 73.00 L 155.00 68.00 L 152.00 68.00 L 148.00 66.00 L 131.00 66.00 L 116.00 72.00 L 104.00 83.00 L 100.00 90.00 Z"/><path d="M 111.00 56.00 L 97.00 67.00 L 90.00 76.00 L 85.00 86.00 L 82.00 98.00 L 82.00 107.00 L 75.00 114.00 L 75.00 144.00 L 79.00 148.00 L 91.00 148.00 L 94.00 144.00 L 94.00 139.00 L 95.00 138.00 L 97.00 139.00 L 103.00 158.00 L 109.00 168.00 L 117.00 177.00 L 117.00 181.00 L 113.00 186.00 L 114.00 189.00 L 121.00 189.00 L 128.00 193.00 L 136.00 195.00 L 148.00 194.00 L 158.00 189.00 L 165.00 188.00 L 166.00 190.00 L 161.00 199.00 L 154.00 207.00 L 140.00 215.00 L 137.00 215.00 L 126.00 209.00 L 114.00 196.00 L 110.00 185.00 L 96.00 187.00 L 79.00 194.00 L 65.00 205.00 L 58.00 215.00 L 55.00 222.00 L 53.00 230.00 L 53.00 251.00 L 55.00 256.00 L 58.00 260.00 L 66.00 264.00 L 165.00 264.00 L 180.00 279.00 L 189.00 284.00 L 200.00 287.00 L 220.00 287.00 L 235.00 282.00 L 244.00 276.00 L 255.00 264.00 L 261.00 253.00 L 265.00 240.00 L 265.00 227.00 L 264.00 226.00 L 263.00 216.00 L 254.00 198.00 L 244.00 188.00 L 237.00 183.00 L 231.00 180.00 L 216.00 176.00 L 203.00 176.00 L 189.00 180.00 L 179.00 186.00 L 166.00 185.00 L 164.00 187.00 L 161.00 183.00 L 159.00 183.00 L 156.00 187.00 L 141.00 193.00 L 137.00 193.00 L 134.00 191.00 L 129.00 190.00 L 123.00 187.00 L 119.00 183.00 L 118.00 180.00 L 120.00 179.00 L 133.00 185.00 L 138.00 185.00 L 138.00 184.00 L 126.00 178.00 L 113.00 166.00 L 106.00 154.00 L 102.00 139.00 L 98.00 138.00 L 93.00 132.00 L 93.00 121.00 L 95.00 118.00 L 95.00 112.00 L 93.00 109.00 L 89.00 108.00 L 89.00 99.00 L 91.00 91.00 L 98.00 78.00 L 109.00 67.00 L 124.00 59.00 L 128.00 59.00 L 133.00 57.00 L 143.00 57.00 L 144.00 58.00 L 154.00 59.00 L 165.00 64.00 L 173.00 70.00 L 185.00 86.00 L 189.00 100.00 L 189.00 107.00 L 184.00 113.00 L 184.00 119.00 L 186.00 122.00 L 186.00 130.00 L 184.00 134.00 L 184.00 137.00 L 185.00 138.00 L 185.00 146.00 L 187.00 148.00 L 187.00 150.00 L 181.00 156.00 L 173.00 159.00 L 156.00 159.00 L 152.00 156.00 L 143.00 156.00 L 139.00 160.00 L 139.00 166.00 L 142.00 169.00 L 151.00 169.00 L 156.00 164.00 L 177.00 164.00 L 187.00 160.00 L 192.00 155.00 L 195.00 148.00 L 199.00 148.00 L 204.00 144.00 L 204.00 114.00 L 201.00 110.00 L 196.00 108.00 L 195.00 94.00 L 190.00 80.00 L 180.00 66.00 L 167.00 56.00 L 155.00 51.00 L 145.00 49.00 L 134.00 49.00 L 133.00 50.00 L 126.00 50.00 Z M 202.00 183.00 L 222.00 184.00 L 237.00 191.00 L 248.00 202.00 L 252.00 208.00 L 257.00 220.00 L 257.00 225.00 L 258.00 226.00 L 257.00 244.00 L 250.00 259.00 L 240.00 270.00 L 226.00 278.00 L 219.00 280.00 L 201.00 280.00 L 184.00 273.00 L 169.00 258.00 L 164.00 248.00 L 162.00 241.00 L 162.00 223.00 L 165.00 213.00 L 171.00 203.00 L 177.00 196.00 L 185.00 190.00 L 195.00 185.00 L 198.00 185.00 Z"/>
  </g>
</svg>
